<svg xmlns="http://www.w3.org/2000/svg" viewBox="0 0 32 32">
  <!-- Background circle for better visibility -->
  <circle cx="16" cy="16" r="15" fill="#FEF3C7" stroke="#F59E0B" stroke-width="1"/>
  
  <!-- Bee body (main oval) -->
  <ellipse cx="16" cy="18" rx="5.5" ry="7" fill="#FCD34D"/>
  
  <!-- Bee stripes -->
  <ellipse cx="16" cy="14" rx="5" ry="1" fill="#92400E"/>
  <ellipse cx="16" cy="17" rx="5.2" ry="1" fill="#92400E"/>
  <ellipse cx="16" cy="20" rx="5" ry="1" fill="#92400E"/>
  <ellipse cx="16" cy="23" rx="4.5" ry="1" fill="#92400E"/>
  
  <!-- Bee head -->
  <circle cx="16" cy="10" r="3.5" fill="#FCD34D"/>
  
  <!-- Bee eyes -->
  <circle cx="14.5" cy="9" r="0.8" fill="#1F2937"/>
  <circle cx="17.5" cy="9" r="0.8" fill="#1F2937"/>
  
  <!-- Bee antennae -->
  <line x1="14.5" y1="6.5" x2="13.5" y2="4.5" stroke="#92400E" stroke-width="1.2" stroke-linecap="round"/>
  <line x1="17.5" y1="6.5" x2="18.5" y2="4.5" stroke="#92400E" stroke-width="1.2" stroke-linecap="round"/>
  <circle cx="13.5" cy="4.5" r="0.8" fill="#F59E0B"/>
  <circle cx="18.5" cy="4.5" r="0.8" fill="#F59E0B"/>
  
  <!-- Bee wings (simplified) -->
  <ellipse cx="11.5" cy="13" rx="2.5" ry="4" fill="#FFFFFF" fill-opacity="0.9" stroke="#D1D5DB" stroke-width="0.5"/>
  <ellipse cx="20.5" cy="13" rx="2.5" ry="4" fill="#FFFFFF" fill-opacity="0.9" stroke="#D1D5DB" stroke-width="0.5"/>
  
  <!-- Wing details -->
  <ellipse cx="11.5" cy="13" rx="1.5" ry="2.5" fill="none" stroke="#D1D5DB" stroke-width="0.3"/>
  <ellipse cx="20.5" cy="13" rx="1.5" ry="2.5" fill="none" stroke="#D1D5DB" stroke-width="0.3"/>
</svg>